<svg width="36" height="11" viewBox="0 0 36 11" fill="none" xmlns="http://www.w3.org/2000/svg">
<path d="M0.167969 10V0.719727H2.13574V8.375H5.8999V10H0.167969Z" fill="white"/>
<path d="M15.9419 5.34717C15.9419 6.06234 15.853 6.71403 15.6753 7.30225C15.4976 7.88623 15.2267 8.38981 14.8628 8.81299C14.5031 9.23617 14.0461 9.56201 13.4917 9.79053C12.9373 10.0148 12.2814 10.127 11.5239 10.127C10.7664 10.127 10.1105 10.0148 9.55615 9.79053C9.00179 9.56201 8.54264 9.23617 8.17871 8.81299C7.81901 8.38981 7.55029 7.88411 7.37256 7.2959C7.19482 6.70768 7.10596 6.05387 7.10596 5.33447C7.10596 4.37386 7.26253 3.53809 7.57568 2.82715C7.89307 2.11198 8.37972 1.55762 9.03564 1.16406C9.69157 0.770508 10.5252 0.57373 11.5366 0.57373C12.5438 0.57373 13.3711 0.770508 14.0186 1.16406C14.6702 1.55762 15.1527 2.11198 15.4658 2.82715C15.7832 3.54232 15.9419 4.38232 15.9419 5.34717ZM9.16895 5.34717C9.16895 5.99463 9.24935 6.55322 9.41016 7.02295C9.5752 7.48844 9.83122 7.84814 10.1782 8.10205C10.5252 8.35173 10.9738 8.47656 11.5239 8.47656C12.0825 8.47656 12.5353 8.35173 12.8823 8.10205C13.2293 7.84814 13.4811 7.48844 13.6377 7.02295C13.7985 6.55322 13.8789 5.99463 13.8789 5.34717C13.8789 4.37386 13.6969 3.60791 13.333 3.04932C12.9691 2.49072 12.3703 2.21143 11.5366 2.21143C10.9823 2.21143 10.5295 2.33838 10.1782 2.59229C9.83122 2.84196 9.5752 3.20166 9.41016 3.67139C9.24935 4.13688 9.16895 4.69548 9.16895 5.34717Z" fill="white"/>
<path d="M21.3882 4.78857H25.0698V9.6001C24.5832 9.76091 24.0775 9.88997 23.5527 9.9873C23.028 10.0804 22.4334 10.127 21.769 10.127C20.8465 10.127 20.0636 9.94499 19.4204 9.58105C18.7772 9.21712 18.2884 8.67969 17.9541 7.96875C17.6198 7.25781 17.4526 6.38395 17.4526 5.34717C17.4526 4.37386 17.6388 3.53174 18.0112 2.8208C18.3879 2.10986 18.9359 1.55973 19.6553 1.17041C20.3789 0.781087 21.2612 0.586426 22.3022 0.586426C22.7931 0.586426 23.2777 0.639323 23.7559 0.745117C24.234 0.850911 24.6678 0.988444 25.0571 1.15771L24.4033 2.73193C24.1198 2.58805 23.7961 2.46745 23.4321 2.37012C23.0682 2.27279 22.6873 2.22412 22.2896 2.22412C21.7183 2.22412 21.221 2.35531 20.7979 2.61768C20.3789 2.88005 20.0531 3.24821 19.8203 3.72217C19.5918 4.19189 19.4775 4.74626 19.4775 5.38525C19.4775 5.9904 19.5601 6.52783 19.7251 6.99756C19.8901 7.46305 20.1504 7.8291 20.5059 8.0957C20.8613 8.35807 21.3247 8.48926 21.896 8.48926C22.1753 8.48926 22.4102 8.47656 22.6006 8.45117C22.7952 8.42155 22.9772 8.39193 23.1465 8.3623V6.42627H21.3882V4.78857Z" fill="white"/>
<path d="M35.7085 5.34717C35.7085 6.06234 35.6196 6.71403 35.4419 7.30225C35.2642 7.88623 34.9933 8.38981 34.6294 8.81299C34.2697 9.23617 33.8127 9.56201 33.2583 9.79053C32.7039 10.0148 32.048 10.127 31.2905 10.127C30.533 10.127 29.8771 10.0148 29.3228 9.79053C28.7684 9.56201 28.3092 9.23617 27.9453 8.81299C27.5856 8.38981 27.3169 7.88411 27.1392 7.2959C26.9614 6.70768 26.8726 6.05387 26.8726 5.33447C26.8726 4.37386 27.0291 3.53809 27.3423 2.82715C27.6597 2.11198 28.1463 1.55762 28.8022 1.16406C29.4582 0.770508 30.2918 0.57373 31.3032 0.57373C32.3104 0.57373 33.1377 0.770508 33.7852 1.16406C34.4368 1.55762 34.9193 2.11198 35.2324 2.82715C35.5498 3.54232 35.7085 4.38232 35.7085 5.34717ZM28.9355 5.34717C28.9355 5.99463 29.016 6.55322 29.1768 7.02295C29.3418 7.48844 29.5978 7.84814 29.9448 8.10205C30.2918 8.35173 30.7404 8.47656 31.2905 8.47656C31.8491 8.47656 32.3019 8.35173 32.6489 8.10205C32.9959 7.84814 33.2477 7.48844 33.4043 7.02295C33.5651 6.55322 33.6455 5.99463 33.6455 5.34717C33.6455 4.37386 33.4635 3.60791 33.0996 3.04932C32.7357 2.49072 32.1369 2.21143 31.3032 2.21143C30.7489 2.21143 30.2961 2.33838 29.9448 2.59229C29.5978 2.84196 29.3418 3.20166 29.1768 3.67139C29.016 4.13688 28.9355 4.69548 28.9355 5.34717Z" fill="white"/>
</svg>
