<svg width="16" height="16" viewBox="0 0 16 16" fill="none" xmlns="http://www.w3.org/2000/svg">
<path d="M2.40002 2.40002C3.10396 1.6183 3.9693 0.998828 4.9362 0.584442C5.9031 0.170057 6.94848 -0.0293468 8.00002 2.40959e-05C9.05157 -0.0293468 10.0969 0.170057 11.0638 0.584442C12.0307 0.998828 12.8961 1.6183 13.6 2.40002C14.3817 3.10396 15.0012 3.9693 15.4156 4.9362C15.83 5.9031 16.0294 6.94848 16 8.00002C16.0294 9.05157 15.83 10.0969 15.4156 11.0638C15.0012 12.0307 14.3817 12.8961 13.6 13.6C12.8961 14.3817 12.0307 15.0012 11.0638 15.4156C10.0969 15.83 9.05157 16.0294 8.00002 16C6.94848 16.0294 5.9031 15.83 4.9362 15.4156C3.9693 15.0012 3.10396 14.3817 2.40002 13.6C0.891245 12.124 0.0283433 10.1105 2.40959e-05 8.00002C-0.0293468 6.94848 0.170057 5.9031 0.584442 4.9362C0.998828 3.9693 1.6183 3.10396 2.40002 2.40002ZM9.06702 14.4C9.85833 14.2589 10.5701 13.8318 11.067 13.2C11.6133 12.3623 11.9346 11.398 12 10.4C12.0025 10.1021 11.9447 9.8068 11.8301 9.53183C11.7155 9.25686 11.5464 9.00793 11.333 8.80002C11.1163 8.55272 10.8501 8.35371 10.5515 8.21589C10.253 8.07808 9.92881 8.00453 9.60002 8.00002H8.26702C7.85541 7.97514 7.45036 7.88502 7.06702 7.73302C6.93675 7.61576 6.83352 7.47159 6.76445 7.3105C6.69539 7.14941 6.66214 6.97523 6.66702 6.80002C6.66906 6.69691 6.69409 6.59556 6.74028 6.50335C6.78647 6.41114 6.85266 6.3304 6.93402 6.26702C7.08082 6.12648 7.26656 6.03343 7.46702 6.00002C7.60085 6.01327 7.73008 6.05601 7.84541 6.12518C7.96074 6.19434 8.05931 6.28821 8.13402 6.40002C8.40102 6.53302 8.53402 6.66702 8.66702 6.66702C8.85494 6.6867 9.04376 6.63923 9.20002 6.53302C9.30588 6.37663 9.35299 6.18782 9.33302 6.00002C9.2792 5.48965 9.04223 5.01608 8.66602 4.66702C9.08855 3.88851 9.31733 3.01967 9.33302 2.13402C9.32834 2.06475 9.29871 1.99953 9.24962 1.95043C9.20052 1.90134 9.1353 1.8717 9.06602 1.86702C8.7242 1.73084 8.36568 1.64105 8.00002 1.60002C6.76798 1.62857 5.56793 1.9979 4.53302 2.66702C4.14478 2.99225 3.83515 3.40111 3.62733 3.86298C3.41952 4.32485 3.3189 4.82775 3.33302 5.33402C3.32564 5.80712 3.41667 6.2766 3.60036 6.71265C3.78404 7.14869 4.05635 7.5418 4.40002 7.86702C5.07281 8.53941 5.9819 8.922 6.93302 8.93302V9.46602C6.92005 9.71379 6.96109 9.96142 7.0533 10.1918C7.1455 10.4221 7.28667 10.6296 7.46702 10.8C7.7495 11.2108 8.17916 11.4973 8.66702 11.6V14C8.66702 14.133 8.66702 14.133 8.80002 14.267C8.93302 14.401 8.93302 14.4 9.06702 14.4Z" fill="white"/>
</svg>
