<svg width="16" height="16" viewBox="0 0 16 16" fill="none" xmlns="http://www.w3.org/2000/svg">
<path fill-rule="evenodd" clip-rule="evenodd" d="M8 1.42194C9.06747 1.3819 10.1364 1.41163 11.2 1.51094C11.7159 1.50461 12.2285 1.59518 12.711 1.77794C13.3767 2.08819 13.9118 2.62322 14.222 3.28894C14.4048 3.77146 14.4953 4.284 14.489 4.79994C14.489 5.59994 14.578 5.86694 14.578 7.99994C14.618 9.06741 14.5883 10.1363 14.489 11.1999C14.4953 11.7159 14.4048 12.2284 14.222 12.7109C13.9118 13.3767 13.3767 13.9117 12.711 14.2219C12.2285 14.4047 11.7159 14.4953 11.2 14.4889C10.4 14.4889 10.133 14.5779 8 14.5779C6.93254 14.618 5.86359 14.5883 4.8 14.4889C4.28407 14.4953 3.77152 14.4047 3.289 14.2219C2.62328 13.9117 2.08825 13.3767 1.778 12.7109C1.59524 12.2284 1.50467 11.7159 1.511 11.1999C1.511 10.3999 1.422 10.1329 1.422 7.99994C1.38196 6.93247 1.41169 5.86353 1.511 4.79994C1.50467 4.284 1.59524 3.77146 1.778 3.28894C1.93308 2.95928 2.14346 2.65861 2.4 2.39994C2.60834 2.08894 2.92544 1.86708 3.289 1.77794C3.77152 1.59518 4.28407 1.50461 4.8 1.51094C5.86359 1.41163 6.93254 1.3819 8 1.42194ZM8 -5.91502e-05C6.90289 -0.0391603 5.8044 -0.00943534 4.711 0.0889409C4.04316 0.0873355 3.38064 0.20764 2.756 0.443941C2.21662 0.619925 1.72845 0.92512 1.334 1.33294C0.92568 1.72756 0.620127 2.2161 0.444002 2.75594C0.165167 3.36802 0.0431623 4.03991 0.0890019 4.71094C-0.00937431 5.80434 -0.0390993 6.90282 1.885e-06 7.99994C-0.0390993 9.09706 -0.00937431 10.1955 0.0890019 11.2889C0.0875942 11.9572 0.20824 12.6201 0.445002 13.2449C0.620986 13.7843 0.926181 14.2725 1.334 14.6669C1.72845 15.0748 2.21662 15.38 2.756 15.5559C3.38089 15.7927 4.04377 15.9133 4.712 15.9119C5.80509 16.0099 6.90324 16.0393 8 15.9999C9.09712 16.039 10.1956 16.0093 11.289 15.9109C11.9572 15.9123 12.6201 15.7917 13.245 15.5549C13.7804 15.3705 14.2667 15.0665 14.6672 14.6661C15.0676 14.2657 15.3716 13.7793 15.556 13.2439C15.7928 12.6191 15.9134 11.9562 15.912 11.2879C15.911 10.3999 16 10.1329 16 7.99994C16.0391 6.90282 16.0094 5.80434 15.911 4.71094C15.9124 4.0427 15.7918 3.37983 15.555 2.75494C15.379 2.21556 15.0738 1.72738 14.666 1.33294C14.2716 0.92512 13.7834 0.619925 13.244 0.443941C12.6194 0.20764 11.9568 0.0873355 11.289 0.0889409C10.1956 -0.00943534 9.09712 -0.0391603 8 -5.91502e-05ZM8 3.91094C7.46057 3.90202 6.92485 4.00168 6.42471 4.20402C5.92458 4.40635 5.47025 4.70721 5.08876 5.0887C4.70727 5.47019 4.40641 5.92452 4.20408 6.42465C4.00175 6.92478 3.90208 7.4605 3.911 7.99994C3.911 8.80867 4.15082 9.59923 4.60012 10.2717C5.04943 10.9441 5.68804 11.4682 6.43521 11.7777C7.18238 12.0872 8.00454 12.1681 8.79773 12.0104C9.59091 11.8526 10.3195 11.4632 10.8914 10.8913C11.4632 10.3194 11.8527 9.59085 12.0104 8.79767C12.1682 8.00448 12.0872 7.18232 11.7777 6.43515C11.4683 5.68798 10.9442 5.04937 10.2717 4.60006C9.5993 4.15076 8.80873 3.91094 8 3.91094ZM8 10.6669C7.64797 10.6735 7.29825 10.6089 6.97173 10.4772C6.64521 10.3455 6.3486 10.1493 6.09964 9.9003C5.85068 9.65134 5.65447 9.35473 5.52275 9.02821C5.39102 8.70169 5.32649 8.35197 5.333 7.99994C5.32649 7.64791 5.39102 7.29819 5.52275 6.97167C5.65447 6.64515 5.85068 6.34854 6.09964 6.09958C6.3486 5.85062 6.64521 5.65441 6.97173 5.52269C7.29825 5.39096 7.64797 5.32643 8 5.33294C8.35203 5.32643 8.70175 5.39096 9.02827 5.52269C9.35479 5.65441 9.6514 5.85062 9.90036 6.09958C10.1493 6.34854 10.3455 6.64515 10.4773 6.97167C10.609 7.29819 10.6735 7.64791 10.667 7.99994C10.6735 8.35197 10.609 8.70169 10.4773 9.02821C10.3455 9.35473 10.1493 9.65134 9.90036 9.9003C9.6514 10.1493 9.35479 10.3455 9.02827 10.4772C8.70175 10.6089 8.35203 10.6735 8 10.6669ZM12.267 2.75594C12.0736 2.75594 11.8845 2.8133 11.7237 2.92076C11.5628 3.02823 11.4375 3.18097 11.3634 3.35968C11.2894 3.53838 11.2701 3.73503 11.3078 3.92474C11.3455 4.11445 11.4387 4.28872 11.5755 4.42549C11.7122 4.56227 11.8865 4.65541 12.0762 4.69315C12.2659 4.73089 12.4626 4.71152 12.6413 4.6375C12.82 4.56347 12.9727 4.43812 13.0802 4.27729C13.1876 4.11646 13.245 3.92737 13.245 3.73394C13.2429 3.47521 13.1392 3.22766 12.9562 3.0447C12.7733 2.86174 12.5257 2.75803 12.267 2.75594Z" fill="white"/>
</svg>
