<svg width="16" height="13" viewBox="0 0 16 13" fill="none" xmlns="http://www.w3.org/2000/svg">
<path fill-rule="evenodd" clip-rule="evenodd" d="M5.067 12.978C6.2958 12.9891 7.51448 12.7552 8.65188 12.29C9.78928 11.8249 10.8226 11.1377 11.6915 10.2688C12.5603 9.39978 13.2474 8.36639 13.7124 7.22894C14.1775 6.09149 14.4112 4.87278 14.4 3.64399V3.19999C15.0211 2.72712 15.5614 2.15673 16 1.51099C15.4039 1.77011 14.7761 1.94933 14.133 2.04399C14.7941 1.62882 15.2953 1.00218 15.555 0.265989C14.9128 0.623571 14.2253 0.892676 13.511 1.06599C13.2101 0.727394 12.8403 0.45709 12.4264 0.273227C12.0124 0.0893646 11.5639 -0.00380015 11.111 -1.09554e-05C10.2428 0.0131477 9.41386 0.363891 8.79988 0.977869C8.1859 1.59185 7.83516 2.42079 7.822 3.28899C7.80181 3.5296 7.83213 3.77178 7.911 3.99999C6.60287 3.93686 5.32334 3.59486 4.15816 2.99692C2.99298 2.39898 1.96905 1.55891 1.155 0.532989C0.862467 1.04773 0.709418 1.62993 0.710999 2.22199C0.72273 2.75928 0.856918 3.28681 1.10334 3.76441C1.34976 4.242 1.70192 4.65706 2.133 4.97799C1.59878 4.96719 1.07714 4.81391 0.622002 4.53399C0.621169 5.29534 0.887736 6.0328 1.37518 6.61765C1.86262 7.20251 2.53997 7.59761 3.289 7.73399C2.99953 7.81209 2.69921 7.84216 2.4 7.82299C2.18872 7.83718 1.97682 7.80686 1.778 7.73399C1.99533 8.39275 2.41082 8.9683 2.96767 9.38195C3.52452 9.7956 4.19555 10.0272 4.889 10.045C3.72051 10.9577 2.28266 11.4577 0.799999 11.467C0.530255 11.4814 0.259975 11.4514 0 11.378C1.47104 12.4462 3.24926 13.0077 5.067 12.978Z" fill="white"/>
</svg>
